<svg version="1.1" id="Layer_1" xmlns="http://www.w3.org/2000/svg" xmlns:xlink="http://www.w3.org/1999/xlink" x="0px" y="0px"
	 width="100%" viewBox="0 0 752 752" enable-background="new 0 0 752 752" xml:space="preserve">
<path fill="#fff" opacity="1.000000" stroke="none" 
	d="
M300.444153,753.000000 
	C292.858063,750.126526 285.171936,749.449097 277.785645,747.531372 
	C230.425339,735.235413 187.281586,714.382263 148.447784,684.596375 
	C95.098778,643.677063 55.082748,592.432312 29.097210,530.367493 
	C16.682730,500.716248 8.877137,469.831390 4.557108,437.983765 
	C3.192754,427.925598 2.855320,417.778595 1.117973,407.382202 
	C1.000000,391.312439 1.000000,375.624878 0.999998,359.468658 
	C2.228276,348.606659 3.201941,338.175781 4.726713,327.826111 
	C13.717280,266.801056 33.763443,210.027008 69.735046,159.389908 
	C110.079399,102.597336 162.179810,60.298733 226.229218,32.958733 
	C257.466370,19.624901 290.151978,11.386937 323.793610,6.524133 
	C346.131683,3.295225 368.485687,2.166419 390.996124,2.610796 
	C436.727539,3.513578 480.973389,12.053713 523.570190,28.675770 
	C582.221069,51.562431 631.272278,87.830391 671.853699,135.814850 
	C707.389648,177.833481 732.024231,225.508759 746.186218,278.615143 
	C748.712280,288.087616 750.530518,297.748810 752.837830,307.661438 
	C753.000000,314.021149 753.000000,320.042297 753.000000,326.531738 
	C750.959778,328.369904 749.726807,330.826080 746.677307,331.549805 
	C744.797241,326.756805 744.700989,321.616913 743.933838,316.675873 
	C734.615051,256.660095 711.120789,202.823746 674.216858,154.638626 
	C645.900879,117.666763 611.766418,87.210266 571.932739,63.358971 
	C535.330505,41.442635 495.889893,26.682432 453.750549,19.138512 
	C425.616760,14.101907 397.350433,11.248796 368.803131,12.431804 
	C314.299713,14.690440 262.009857,26.223228 212.680435,50.196846 
	C179.131119,66.501480 148.706970,87.386024 122.014122,113.239624 
	C87.555359,146.614960 60.697063,185.518585 41.774879,229.770432 
	C27.202385,263.850006 18.181761,299.410400 13.542006,336.073547 
	C9.427781,368.583984 10.019380,401.085632 14.009195,433.664001 
	C21.093395,491.509186 40.990204,544.390747 74.048492,592.255920 
	C112.921509,648.540344 163.514374,690.947937 226.013336,718.974792 
	C252.589066,730.892273 280.258972,739.213745 309.000824,743.961853 
	C310.624725,744.230164 312.220184,744.670471 314.086456,745.088318 
	C313.441071,748.759583 309.990265,749.927917 308.207581,752.743286 
	C305.629425,753.000000 303.258881,753.000000 300.444153,753.000000 
z"/>
<path fill="#fff" opacity="1.000000" stroke="none" 
	d="
M449.444153,753.000000 
	C446.134155,746.368408 447.040741,744.684875 453.896942,743.906250 
	C459.234894,743.299988 460.952606,741.566040 460.641754,736.155396 
	C460.172180,727.982971 456.964966,720.375977 455.309296,712.440369 
	C454.940277,710.671692 454.469147,708.924377 454.068146,707.262939 
	C460.963593,702.615601 462.656158,703.173645 464.610565,710.682617 
	C466.445038,717.730896 468.715729,724.720337 469.844238,731.885315 
	C471.702820,743.685608 469.822723,748.354675 457.280731,752.797119 
	C454.629425,753.000000 452.258881,753.000000 449.444153,753.000000 
z"/>
<path fill="#fff" opacity="1.000000" stroke="none" 
	d="
M279.966034,510.313477 
	C241.145325,510.307800 202.819626,510.311462 164.493958,510.284698 
	C159.113892,510.280914 158.222549,509.196899 158.659790,504.240784 
	C158.851654,502.066010 159.781952,500.937805 161.887604,500.484344 
	C166.272797,499.539948 170.662613,498.591949 174.997849,497.446075 
	C182.411530,495.486389 182.687378,495.051208 182.688400,487.083069 
	C182.697388,416.763763 182.699326,346.444458 182.703232,276.125153 
	C182.703690,267.793488 182.593842,259.459808 182.746231,251.130951 
	C182.831116,246.491776 180.826447,244.045181 176.288254,243.222168 
	C171.717224,242.393219 167.233429,241.078522 162.659225,240.272995 
	C158.828354,239.598389 158.670059,237.088684 158.638321,234.020218 
	C158.602997,230.604248 160.859360,230.332962 163.249954,230.172714 
	C165.574081,230.016922 167.911972,230.031143 170.243820,230.030869 
	C243.729141,230.022156 317.214447,230.020599 390.699768,230.019745 
	C392.199280,230.019730 393.699554,230.076859 395.198151,230.045547 
	C399.387817,229.957977 400.410126,232.210968 400.388184,236.070541 
	C400.260162,258.565338 400.328918,281.061188 400.318207,303.556702 
	C400.317047,306.049774 400.684784,308.960602 397.007416,309.108429 
	C393.486328,309.249969 389.583435,310.302521 387.945923,305.304504 
	C385.668030,298.352020 383.190521,291.455109 380.522522,284.642487 
	C376.239777,273.706665 370.988983,263.397247 361.614319,255.705048 
	C350.712036,246.759384 337.605316,244.146194 324.263977,243.577148 
	C306.299408,242.810883 288.278259,243.439590 270.283478,243.260300 
	C266.214233,243.219757 265.173370,244.896179 265.181763,248.624893 
	C265.261658,284.117615 265.282715,319.610809 265.152222,355.103210 
	C265.135864,359.550629 266.792694,360.790527 271.045502,360.770355 
	C300.205719,360.631927 329.366852,360.689636 358.527710,360.699066 
	C364.463623,360.700989 364.242493,360.740845 364.634033,368.809052 
	C364.887115,374.023956 361.528595,373.388550 358.392548,373.390076 
	C329.564972,373.404053 300.737427,373.392334 271.909851,373.392426 
	C265.286407,373.392456 265.224609,373.449921 265.223785,380.091583 
	C265.219482,415.251221 265.214142,450.410889 265.227142,485.570526 
	C265.230347,494.320557 266.200684,495.547333 274.603851,497.486786 
	C279.138611,498.533356 283.670074,499.633759 288.252747,500.420349 
	C291.866882,501.040680 292.209778,503.473907 292.095856,506.300812 
	C291.962830,509.602386 289.799164,510.381744 286.956329,510.312714 
	C284.792511,510.260132 282.626251,510.309265 279.966034,510.313477 
z"/>
<path fill="#fff" opacity="1.000000" stroke="none" 
	d="
M566.255371,467.916992 
	C567.461365,474.379944 568.298157,480.493744 570.351624,486.325745 
	C573.336304,494.802582 581.775208,497.170288 588.745728,491.503113 
	C590.960876,489.702148 592.828674,487.583374 594.305176,485.132080 
	C595.680725,482.848358 596.685913,480.097565 600.322327,482.359497 
	C605.256592,485.428741 606.444946,487.697815 604.239441,491.447510 
	C597.914062,502.201538 588.623962,509.326813 576.445862,511.742371 
	C557.637390,515.473083 538.709839,515.437195 519.943481,511.113831 
	C501.938049,506.965759 490.156464,495.689453 483.552765,478.669250 
	C478.222473,464.931091 475.935822,450.501312 473.565277,436.057159 
	C471.390533,422.806213 469.966492,409.391968 465.721313,396.538330 
	C461.968597,385.175690 455.397644,380.371735 443.422729,379.185669 
	C434.278381,378.279968 425.142731,378.167725 415.990784,377.985016 
	C409.720093,377.859802 409.921143,377.797668 409.580353,370.892303 
	C409.342957,366.081024 410.952362,364.508362 415.785614,364.630341 
	C426.576263,364.902588 437.312317,364.787842 448.035522,362.439392 
	C465.037415,358.715851 474.848969,348.177155 478.234009,331.719238 
	C482.195679,312.457794 482.097168,293.056885 477.697754,273.799255 
	C474.261108,258.755890 464.539062,250.112976 449.841217,246.334564 
	C438.755646,243.484772 427.495483,243.335556 416.186707,243.273346 
	C414.134644,243.262070 411.253021,244.237885 410.302765,241.847427 
	C409.014191,238.605896 409.052704,234.860519 410.225647,231.578400 
	C410.991730,229.434891 413.725403,229.961716 415.617950,230.078003 
	C432.571442,231.119827 449.567230,230.295731 466.531708,231.727432 
	C485.000427,233.286072 503.311615,235.571869 520.846863,241.659531 
	C547.578491,250.939880 561.971191,266.144562 565.174866,294.817474 
	C566.851074,309.819672 565.069397,324.378998 557.831848,337.879761 
	C552.734009,347.389130 545.039062,354.439484 535.645386,359.550964 
	C524.615295,365.552917 512.986023,369.933136 500.416870,371.491821 
	C499.314606,371.628510 498.266205,372.199432 496.433960,372.829620 
	C501.000732,375.509949 505.591492,375.320526 509.778137,375.992004 
	C535.510498,380.119202 549.548096,396.197968 556.364136,420.209991 
	C560.775208,435.749359 562.700378,451.779510 566.255371,467.916992 
z"/>
<path fill="#fff" opacity="1.000000" stroke="none" 
	d="
M663.667358,613.334229 
	C669.429871,617.918030 669.419006,618.341064 665.656616,622.765564 
	C663.967590,624.751892 662.633789,624.876099 660.665955,623.304504 
	C650.650696,615.305847 640.576477,607.380981 630.546814,599.400208 
	C629.922607,598.903442 629.502319,598.150452 628.572937,597.007141 
	C633.200012,591.359741 637.331055,585.221252 642.549500,580.216736 
	C649.623901,573.432312 663.438232,576.588684 665.448608,586.132935 
	C667.341064,595.117676 672.806519,595.184265 679.236938,595.663330 
	C681.169739,595.807312 683.300964,595.386780 684.691650,597.320801 
	C681.674072,604.100769 680.421204,604.908752 673.571655,604.265015 
	C671.590515,604.078796 669.628601,603.685486 667.658997,603.379639 
	C664.051331,602.819519 660.884766,603.453369 659.394897,607.201599 
	C657.922363,610.906311 661.926941,611.226379 663.667358,613.334229 
M649.949463,602.260681 
	C653.651489,601.143738 657.900391,596.029480 657.855591,592.739807 
	C657.820190,590.144958 656.436096,588.361694 654.290466,587.158447 
	C652.122803,585.942810 649.897766,585.817566 647.727722,587.268127 
	C641.245422,591.601135 641.027344,595.406189 647.001587,600.100647 
	C647.783142,600.714844 648.566162,601.327393 649.949463,602.260681 
z"/>
<path fill="#fff" opacity="1.000000" stroke="none" 
	d="
M703.617676,568.141174 
	C696.837585,566.444824 691.475159,562.383972 685.592773,559.375183 
	C678.658081,555.828186 671.912842,551.910828 664.668945,547.924927 
	C668.442810,538.846619 673.290894,530.762573 678.083496,522.687195 
	C679.710876,519.945007 681.902222,522.546570 683.732239,523.268066 
	C686.070679,524.190063 685.876526,525.845642 684.864990,527.725220 
	C682.127319,532.811951 679.432739,537.921997 676.765625,542.938904 
	C684.084351,548.612732 684.300964,548.566162 688.349304,541.080505 
	C689.377686,539.178955 690.534058,537.343384 691.497009,535.410461 
	C692.827576,532.739441 694.537598,532.419800 697.158081,533.784058 
	C700.073120,535.301697 699.841797,537.087891 698.418823,539.443604 
	C697.044373,541.718933 696.011292,544.216614 694.504272,546.392151 
	C691.738159,550.385193 692.584839,553.033936 697.047974,554.728699 
	C698.122009,555.136475 699.138123,555.696655 700.777588,556.467224 
	C703.175598,552.066956 705.482605,547.737061 707.879639,543.457642 
	C711.493042,537.006775 711.637573,537.000610 718.205322,542.094238 
	C713.650024,550.749329 709.282410,559.633362 703.617676,568.141174 
z"/>
<path fill="#fff" opacity="1.000000" stroke="none" 
	d="
M523.010071,719.899780 
	C525.346985,718.901001 527.411621,718.190918 529.307007,717.167419 
	C532.093018,715.663086 533.734558,716.135742 535.118103,719.178040 
	C536.600037,722.436707 535.657532,723.947205 532.572205,725.213806 
	C525.802368,727.992920 519.076782,730.897644 512.451416,734.003357 
	C509.194763,735.529968 507.413910,735.102234 505.948517,731.597595 
	C501.456909,720.855286 496.771484,710.191223 491.977570,699.579773 
	C490.446564,696.190918 490.676025,694.156311 494.479523,692.647522 
	C501.281372,689.949524 507.993866,686.999939 514.612854,683.877991 
	C517.929565,682.313599 518.906860,683.955811 520.102478,686.546997 
	C521.371094,689.296570 520.857544,690.747253 518.025818,691.890442 
	C512.953430,693.938171 507.995361,696.269043 503.183472,698.395813 
	C502.553650,700.768372 503.873535,702.274231 504.424530,703.952454 
	C505.275909,706.545471 506.902527,707.182495 509.452728,705.956482 
	C512.749084,704.371826 516.201782,703.112549 519.498352,701.528442 
	C522.220459,700.220398 523.370422,701.515564 524.453186,703.794861 
	C525.639160,706.291565 525.121521,707.789734 522.586243,708.921265 
	C518.362549,710.806213 513.894714,712.216614 510.151520,714.829834 
	C510.089447,715.373596 509.943573,715.731689 510.031067,716.018677 
	C512.641846,724.581482 512.645508,724.580383 523.010071,719.899780 
z"/>
<path fill="#fff" opacity="1.000000" stroke="none" 
	d="
M608.955322,660.038208 
	C602.886047,653.369385 597.140930,646.882141 591.182983,640.596558 
	C588.701050,637.978210 588.519104,636.168274 591.461975,633.705078 
	C596.951050,629.110901 602.211304,624.235107 607.436096,619.337097 
	C609.817749,617.104431 611.422729,617.409668 613.635254,619.725098 
	C616.099182,622.303772 615.208496,623.800903 613.085693,625.870605 
	C609.304260,629.557495 604.697937,632.407715 601.452637,636.968994 
	C602.099243,637.871033 602.607483,638.708008 603.238159,639.439453 
	C607.642212,644.546936 607.684814,644.534973 612.476746,640.018005 
	C614.051819,638.533325 615.712952,637.138611 617.264832,635.630798 
	C619.394958,633.561279 621.131104,633.102844 623.448547,635.741089 
	C625.852234,638.477478 624.780273,639.955994 622.555908,641.831299 
	C619.524780,644.386841 616.695312,647.181580 613.337219,650.282043 
	C616.636780,654.042542 619.541626,657.628296 622.747253,660.921204 
	C625.394775,663.640930 623.732727,665.207153 621.756470,667.041931 
	C619.710815,668.941284 617.846130,670.209045 615.519287,667.381165 
	C613.510071,664.939392 611.309448,662.655090 608.955322,660.038208 
z"/>
<path fill="#fff" opacity="1.000000" stroke="none" 
	d="
M568.906250,683.871338 
	C565.129272,685.704102 565.059814,687.884888 567.307434,690.755981 
	C568.943481,692.845764 570.143188,695.272644 571.724670,697.410828 
	C573.885315,700.332031 573.997864,702.329529 570.508545,704.645264 
	C566.765259,707.129578 565.285278,705.348083 563.480957,702.518066 
	C557.215698,692.691223 550.927551,682.876953 544.477234,673.171387 
	C542.579712,670.316284 542.784607,668.635498 545.814575,666.803406 
	C551.938599,663.100281 557.908630,659.135864 563.856384,655.151123 
	C566.354858,653.477295 567.983276,653.224304 569.919739,656.187683 
	C571.923645,659.254333 571.271423,660.836853 568.387085,662.488098 
	C565.502686,664.139404 562.944458,666.409302 559.971802,667.846497 
	C555.214600,670.146362 554.941711,672.925232 558.239136,676.629578 
	C558.890930,677.361755 559.448669,678.177673 560.191833,679.138550 
	C564.378662,678.005188 567.427429,675.064941 570.880737,672.905396 
	C573.314392,671.383362 575.082153,670.682983 577.059326,673.669128 
	C578.968750,676.552917 578.195557,678.109497 575.485474,679.605896 
	C573.304810,680.810059 571.283264,682.302429 568.906250,683.871338 
z"/>
<path fill="#fff" opacity="1.000000" stroke="none" 
	d="
M729.030762,497.096375 
	C719.607422,492.126953 710.840576,496.891663 701.972473,497.816895 
	C697.890747,498.242798 693.932800,499.704559 689.753540,499.531250 
	C689.445129,492.524933 691.142517,490.481415 697.519043,489.586884 
	C702.565063,488.879028 707.582642,487.968079 714.047241,486.913269 
	C709.870239,482.420776 706.487488,478.704773 703.019043,475.070618 
	C697.960815,469.770813 697.853821,468.416046 702.709351,461.294006 
	C706.532532,465.570770 710.271729,469.700134 713.951355,473.881927 
	C719.637207,480.343811 724.805420,487.424957 734.289307,488.781403 
	C738.086304,489.324463 738.942688,491.388336 737.630005,495.210876 
	C736.320068,499.025665 734.373474,499.259399 731.295532,497.837616 
	C730.697205,497.561218 730.035156,497.422577 729.030762,497.096375 
z"/>
</svg>